<svg width="36" height="36" viewBox="0 0 36 36" fill="none" xmlns="http://www.w3.org/2000/svg">
<path d="M30.584 7.854C30.854 6.125 31.612 3.946 33.559 2C34.263 1.296 33.809 0 32.559 0C32.559 0 26.498 0.00699997 22.666 3.327C21.663 3.115 20.625 3 19.559 3C11.559 3 7.55903 7 5.55903 15C5.11503 16.778 4.69403 16.399 2.55903 18C1.36403 18.896 0.442027 21 3.55903 21C6.55903 21 8.55903 21.954 12.559 22C16.188 22.042 22.063 18.771 23.646 20.708C25.857 23.414 25.042 26.146 24.243 27.374C21.339 30.77 18.304 27.915 15.558 27C12.558 26 14.558 28 15.558 29C16.558 30 16.87 33 15.558 35C14.246 37 18.558 35 20.558 32C20.569 31.983 20.58 31.972 20.59 31.955C28.392 31.5 34.559 25.936 34.559 18C34.559 14.082 33.044 10.526 30.584 7.854Z" fill="#4292E0"/>
<path d="M13.117 16C14.2216 16 15.117 15.1046 15.117 14C15.117 12.8954 14.2216 12 13.117 12C12.0124 12 11.117 12.8954 11.117 14C11.117 15.1046 12.0124 16 13.117 16Z" fill="#1F2326"/>
<path d="M10.396 21.896C10.396 21.896 14.396 21.02 17.563 19.208C22.188 16.562 24.823 16.614 26.448 18.385C28.073 20.156 28.438 24.979 23.563 28.062C26.167 25.312 24.709 19.713 21.549 20.474C13.396 22.438 12.646 22.021 10.396 21.896Z" fill="#77BCF7"/>
<path d="M19.383 17.744L16.461 19.029C16.207 19.093 16.028 19.329 16.049 19.59C16.171 21.094 16.805 23.215 18.312 24.219C20.666 25.788 20.679 26.116 21.312 24.219C22.08 21.916 21.13 19.757 19.979 17.979C19.852 17.783 19.609 17.686 19.383 17.744Z" fill="#4292E0"/>
</svg>
