<svg width="36" height="36" viewBox="0 0 36 36" fill="none" xmlns="http://www.w3.org/2000/svg">
<g clip-path="url(#clip0_65_81)">
<path d="M2.38097 8.671C0.807966 8.671 0.0219662 9.457 0.807966 10.244C2.38097 11.817 3.95297 11.817 4.73897 11.03L2.38097 8.671ZM8.67097 2.381C8.67097 0.807997 9.45697 0.0219967 10.244 0.807997C11.817 2.381 11.817 3.953 11.03 4.739L8.67097 2.381ZM3.95397 11.816C3.95397 11.816 12.501 26.249 18.893 28.328C22.237 29.415 24.585 28.927 26.756 26.755C28.927 24.583 29.162 22.308 28.329 18.892C26.937 13.188 11.816 3.954 11.816 3.954L3.95397 11.816Z" fill="#A78E81"/>
<path d="M16.129 26.852C20.36 32.212 24.922 34.659 26.594 33.371C28.218 32.121 26.27 30.793 24.42 26.417C22.484 21.837 13.894 24.02 16.129 26.852ZM26.85 16.07C32.21 20.301 34.653 24.928 33.366 26.6C32.116 28.224 30.788 26.276 26.412 24.426C21.831 22.49 24.018 13.835 26.85 16.07Z" fill="#A78E81"/>
<path d="M17.0081 21.564C17.7071 20.277 16.0941 18.201 14.5041 18.25C13.3321 18.286 10.8871 20.184 8.62106 17.504C8.41206 17.713 8.31706 18 8.31006 18.333C9.46806 19.91 10.7821 21.575 12.1581 23.098C13.8141 23.577 16.0711 23.29 17.0081 21.564ZM18.2501 14.504C18.2011 16.093 20.2781 17.707 21.5641 17.008C23.2761 16.078 23.5711 13.849 23.1081 12.198C21.5631 10.826 19.8621 9.49499 18.2571 8.31599C17.9571 8.33599 17.6971 8.42899 17.5041 8.62199C20.1831 10.887 18.2861 13.332 18.2501 14.504Z" fill="#846659"/>
<path d="M13.3409 16.895C14.9299 16.846 16.5439 18.923 15.8449 20.209C14.7249 22.27 11.7099 22.295 10.1049 21.392C8.31494 20.385 6.37295 17.235 7.45894 16.149C9.72395 18.829 12.1679 16.932 13.3409 16.895ZM16.8939 13.342C16.8449 14.931 18.9219 16.545 20.2079 15.846C22.2689 14.726 22.2939 11.711 21.3909 10.106C20.3839 8.316 17.2339 6.374 16.1479 7.46C18.8269 9.725 16.9299 12.17 16.8939 13.342Z" fill="#CAB8AC"/>
<path d="M27.5421 24.397C31.0161 27.871 36.2731 34.536 35.4051 35.405C34.5371 36.273 27.8711 31.016 24.3971 27.542C20.9231 24.068 20.3831 22.12 21.2521 21.252C22.1201 20.383 24.0681 20.923 27.5421 24.397ZM12.6031 3.167C14.7741 5.338 14.1571 7.903 11.0301 11.03C7.90306 14.157 5.33806 14.774 3.16706 12.603C0.996057 10.432 0.827057 7.08 3.95406 3.954C7.08106 0.827996 10.4311 0.995996 12.6031 3.167Z" fill="#A78E81"/>
<path d="M13.7379 4.30301C14.9609 5.52601 15.7289 9.47601 12.6019 12.603C9.47494 15.73 5.52594 14.962 4.30194 13.739C2.37194 11.809 5.52494 8.67201 7.09794 7.09901C8.67094 5.52601 11.8079 2.37301 13.7379 4.30301Z" fill="#CAB8AC"/>
<path d="M9.45704 6.31201C10.325 7.18001 10.325 8.58901 9.45704 9.45701C8.58904 10.325 7.18003 10.325 6.31204 9.45701C5.44404 8.58901 6.23004 7.96701 7.09904 7.09901C7.96804 6.23101 8.58904 5.44401 9.45704 6.31201Z" fill="#292F33"/>
<path d="M4.74005 10.569C5.35419 10.569 5.85205 10.0711 5.85205 9.457C5.85205 8.84286 5.35419 8.345 4.74005 8.345C4.12591 8.345 3.62805 8.84286 3.62805 9.457C3.62805 10.0711 4.12591 10.569 4.74005 10.569Z" fill="#292F33"/>
<path d="M9.45697 5.85201C10.0711 5.85201 10.569 5.35415 10.569 4.74001C10.569 4.12587 10.0711 3.62801 9.45697 3.62801C8.84283 3.62801 8.34497 4.12587 8.34497 4.74001C8.34497 5.35415 8.84283 5.85201 9.45697 5.85201Z" fill="#292F33"/>
<path d="M10.655 10.401C10.229 10.401 9.83495 10.3 9.52295 10.093C9.33395 9.968 9.28195 9.713 9.40695 9.523C9.53195 9.333 9.78695 9.281 9.97695 9.407C10.429 9.706 11.316 9.595 11.996 9.154C12.272 8.975 12.902 8.48 12.781 7.755C12.744 7.531 12.895 7.319 13.119 7.282C13.344 7.246 13.555 7.396 13.592 7.62C13.731 8.456 13.301 9.288 12.442 9.844C11.877 10.212 11.237 10.401 10.655 10.401Z" fill="#A78E81"/>
<path d="M7.93105 13.619C7.82805 13.619 7.72405 13.61 7.62105 13.593C7.39705 13.555 7.24505 13.344 7.28305 13.12C7.32105 12.896 7.53405 12.745 7.75605 12.782C8.47805 12.903 8.97605 12.273 9.15505 11.996C9.59605 11.315 9.70805 10.428 9.40805 9.97699C9.28305 9.78799 9.33405 9.53299 9.52405 9.40699C9.71305 9.28099 9.96905 9.33299 10.094 9.52299C10.583 10.262 10.481 11.462 9.84505 12.443C9.35705 13.196 8.65805 13.619 7.93105 13.619Z" fill="#A78E81"/>
<path d="M25.6351 28.904C24.6141 27.27 24.1341 25.341 24.7371 24.738C25.3501 24.125 26.8101 23.993 28.9231 25.616C27.5751 24.33 25.1661 22.921 24.7371 20.572C24.8601 22.736 24.3181 25.197 20.6121 24.615C22.6941 25.229 25.6351 28.904 25.6351 28.904Z" fill="#846659"/>
<path d="M2.928 15.73C2.9 15.73 2.871 15.728 2.842 15.722C2.578 15.675 2.402 15.422 2.449 15.158C2.856 12.889 4.242 11.267 6.156 10.82C6.417 10.76 6.679 10.922 6.74 11.183C6.801 11.445 6.639 11.706 6.377 11.767C4.853 12.123 3.743 13.456 3.406 15.331C3.364 15.564 3.16 15.73 2.928 15.73Z" fill="#67757F"/>
<path d="M5.07203 15.974C4.81903 15.974 4.60603 15.779 4.58803 15.523C4.50903 14.445 5.08103 13.025 6.17403 12.515C6.41803 12.402 6.70703 12.506 6.82003 12.75C6.93303 12.993 6.82903 13.283 6.58503 13.396C5.91403 13.709 5.50503 14.731 5.55703 15.452C5.57703 15.72 5.37603 15.953 5.10803 15.972C5.09503 15.974 5.08403 15.974 5.07203 15.974ZM11.28 6.765C11.243 6.765 11.206 6.76099 11.169 6.752C10.907 6.691 10.745 6.429 10.806 6.168C11.254 4.254 12.876 2.869 15.144 2.461C15.408 2.414 15.661 2.59 15.708 2.854C15.755 3.118 15.58 3.371 15.315 3.418C13.44 3.755 12.108 4.865 11.751 6.389C11.701 6.614 11.501 6.765 11.28 6.765Z" fill="#67757F"/>
<path d="M12.944 6.87699C12.875 6.87699 12.805 6.86199 12.739 6.83099C12.495 6.71799 12.391 6.42799 12.504 6.18499C13.014 5.09199 14.423 4.52099 15.512 4.59899C15.78 4.61799 15.981 4.85199 15.961 5.11899C15.942 5.38599 15.713 5.58699 15.441 5.56799C14.729 5.51999 13.699 5.92499 13.385 6.59599C13.302 6.77299 13.127 6.87699 12.944 6.87699Z" fill="#67757F"/>
</g>
<defs>
<clipPath id="clip0_65_81">
<rect width="36" height="36" fill="white"/>
</clipPath>
</defs>
</svg>
